<?xml version="1.0" encoding="UTF-8" standalone="no"?>
<svg
   xmlns:dc="http://purl.org/dc/elements/1.1/"
   xmlns:cc="http://creativecommons.org/ns#"
   xmlns:rdf="http://www.w3.org/1999/02/22-rdf-syntax-ns#"
   xmlns:svg="http://www.w3.org/2000/svg"
   xmlns="http://www.w3.org/2000/svg"
   id="svg130"
   version="1.1"
   viewBox="0 0 30 30"
   height="30px"
   width="30px">
  <metadata
     id="metadata136">
    <rdf:RDF>
      <cc:Work
         rdf:about="">
        <dc:format>image/svg+xml</dc:format>
        <dc:type
           rdf:resource="http://purl.org/dc/dcmitype/StillImage" />
        <dc:title>icon/stampa</dc:title>
      </cc:Work>
    </rdf:RDF>
  </metadata>
  <defs
     id="defs134" />
  <title
     id="title121">icon/stampa</title>
  <g
     style="fill:none;fill-rule:evenodd;stroke:none;stroke-width:1"
     id="Symbols">
    <g
       id="icon/stampa">
      <g
         transform="rotate(90,15,15)"
         id="Stampa">
        <circle
           style="fill:#f3f2ff"
           r="15"
           cy="15"
           cx="15"
           id="Oval" />
        <g
           transform="matrix(0.0389866,0,0,0.0389866,13.006886,12.169946)"
           id="g1418">
          <g
             transform="rotate(-90,36.207147,292.38377)"
             id="g6"
             style="fill:#3624e0;fill-opacity:1;stroke:#3624e0;stroke-opacity:1">
            <g
               id="g4"
               style="fill:#3624e0;fill-opacity:1;stroke:#3624e0;stroke-opacity:1">
              <path
                 d="M 503.839,395.379 308.139,56.417 C 297.257,37.569 277.766,26.315 256,26.315 c -21.765,0 -41.257,11.254 -52.139,30.102 L 8.162,395.378 c -10.883,18.85 -10.883,41.356 0,60.205 10.883,18.849 30.373,30.102 52.139,30.102 h 391.398 c 21.765,0 41.256,-11.254 52.14,-30.101 10.883,-18.85 10.883,-41.356 0,-60.205 z m -25.978,45.207 C 472.4,450.044 462.62,455.69 451.699,455.69 H 60.301 c -10.922,0 -20.702,-5.646 -26.162,-15.104 -5.46,-9.458 -5.46,-20.75 0,-30.208 L 229.84,71.416 c 5.46,-9.458 15.24,-15.104 26.161,-15.104 10.92,0 20.701,5.646 26.161,15.104 l 195.7,338.962 c 5.459,9.458 5.459,20.75 -0.001,30.208 z"
                 id="path2"
                 style="fill:#3624e0;fill-opacity:1;stroke:#3624e0;stroke-opacity:1" />
            </g>
          </g>
          <g
             transform="rotate(-90,36.207147,292.38377)"
             id="g12"
             style="fill:#3624e0;fill-opacity:1;stroke:#3624e0;stroke-opacity:1">
            <g
               id="g10"
               style="fill:#3624e0;fill-opacity:1;stroke:#3624e0;stroke-opacity:1">
              <rect
                 x="241.00101"
                 y="176.00999"
                 width="29.996"
                 height="149.98199"
                 id="rect8"
                 style="fill:#3624e0;fill-opacity:1;stroke:#3624e0;stroke-opacity:1" />
            </g>
          </g>
          <g
             transform="rotate(-90,36.207147,292.38377)"
             id="g18"
             style="fill:#ff0000;fill-opacity:1;stroke:#ff0000;stroke-opacity:1">
            <g
               id="g16"
               style="fill:#ff0000;fill-opacity:1;stroke:#ff0000;stroke-opacity:1">
              <path
                 d="m 256,355.99 c -11.027,0 -19.998,8.971 -19.998,19.998 0,11.027 8.971,19.998 19.998,19.998 11.026,0 19.998,-8.971 19.998,-19.998 0,-11.027 -8.971,-19.998 -19.998,-19.998 z"
                 id="path14"
                 style="fill:#ff0000;fill-opacity:1;stroke:#ff0000;stroke-opacity:1" />
            </g>
          </g>
        </g>
        <g
           style="fill:#3624e0;fill-opacity:1;stroke:#3624e0;stroke-opacity:1"
           id="g20"
           transform="rotate(-90,36.207147,292.38377)" />
        <g
           style="fill:#3624e0;fill-opacity:1;stroke:#3624e0;stroke-opacity:1"
           id="g22"
           transform="rotate(-90,36.207147,292.38377)" />
        <g
           style="fill:#3624e0;fill-opacity:1;stroke:#3624e0;stroke-opacity:1"
           id="g24"
           transform="rotate(-90,36.207147,292.38377)" />
        <g
           style="fill:#3624e0;fill-opacity:1;stroke:#3624e0;stroke-opacity:1"
           id="g26"
           transform="rotate(-90,36.207147,292.38377)" />
        <g
           style="fill:#3624e0;fill-opacity:1;stroke:#3624e0;stroke-opacity:1"
           id="g28"
           transform="rotate(-90,36.207147,292.38377)" />
        <g
           style="fill:#3624e0;fill-opacity:1;stroke:#3624e0;stroke-opacity:1"
           id="g30"
           transform="rotate(-90,36.207147,292.38377)" />
        <g
           style="fill:#3624e0;fill-opacity:1;stroke:#3624e0;stroke-opacity:1"
           id="g32"
           transform="rotate(-90,36.207147,292.38377)" />
        <g
           style="fill:#3624e0;fill-opacity:1;stroke:#3624e0;stroke-opacity:1"
           id="g34"
           transform="rotate(-90,36.207147,292.38377)" />
        <g
           style="fill:#3624e0;fill-opacity:1;stroke:#3624e0;stroke-opacity:1"
           id="g36"
           transform="rotate(-90,36.207147,292.38377)" />
        <g
           style="fill:#3624e0;fill-opacity:1;stroke:#3624e0;stroke-opacity:1"
           id="g38"
           transform="rotate(-90,36.207147,292.38377)" />
        <g
           style="fill:#3624e0;fill-opacity:1;stroke:#3624e0;stroke-opacity:1"
           id="g40"
           transform="rotate(-90,36.207147,292.38377)" />
        <g
           style="fill:#3624e0;fill-opacity:1;stroke:#3624e0;stroke-opacity:1"
           id="g42"
           transform="rotate(-90,36.207147,292.38377)" />
        <g
           style="fill:#3624e0;fill-opacity:1;stroke:#3624e0;stroke-opacity:1"
           id="g44"
           transform="rotate(-90,36.207147,292.38377)" />
        <g
           style="fill:#3624e0;fill-opacity:1;stroke:#3624e0;stroke-opacity:1"
           id="g46"
           transform="rotate(-90,36.207147,292.38377)" />
        <g
           style="fill:#3624e0;fill-opacity:1;stroke:#3624e0;stroke-opacity:1"
           id="g48"
           transform="rotate(-90,36.207147,292.38377)" />
      </g>
    </g>
  </g>
</svg>
