<?xml version="1.0" encoding="UTF-8"?>
<svg width="46px" height="46px" viewBox="0 0 46 46" version="1.1" xmlns="http://www.w3.org/2000/svg" xmlns:xlink="http://www.w3.org/1999/xlink">
    <title>icon/CSV</title>
    <g id="Symbols" stroke="none" stroke-width="1" fill="none" fill-rule="evenodd">
        <g id="icon/CSV">
            <g id="Group-26">
                <circle id="Oval" fill="#F3F2FF" cx="23" cy="23" r="23"></circle>
                <path d="M14.5,28.18 C15.41,28.18 16.235,28.02 16.975,27.7 C17.715,27.38 18.335,26.915 18.835,26.305 L18.835,26.305 L17.275,24.865 C16.565,25.695 15.685,26.11 14.635,26.11 C13.985,26.11 13.405,25.9675 12.895,25.6825 C12.385,25.3975 11.9875,25 11.7025,24.49 C11.4175,23.98 11.275,23.4 11.275,22.75 C11.275,22.1 11.4175,21.52 11.7025,21.01 C11.9875,20.5 12.385,20.1025 12.895,19.8175 C13.405,19.5325 13.985,19.39 14.635,19.39 C15.685,19.39 16.565,19.8 17.275,20.62 L17.275,20.62 L18.835,19.18 C18.335,18.58 17.7175,18.12 16.9825,17.8 C16.2475,17.48 15.425,17.32 14.515,17.32 C13.435,17.32 12.4625,17.5525 11.5975,18.0175 C10.7325,18.4825 10.0525,19.1275 9.5575,19.9525 C9.0625,20.7775 8.815,21.71 8.815,22.75 C8.815,23.79 9.0625,24.7225 9.5575,25.5475 C10.0525,26.3725 10.7325,27.0175 11.5975,27.4825 C12.4625,27.9475 13.43,28.18 14.5,28.18 Z M23.455,28.18 C24.415,28.18 25.23,28.035 25.9,27.745 C26.57,27.455 27.0725,27.0625 27.4075,26.5675 C27.7425,26.0725 27.91,25.525 27.91,24.925 C27.91,24.225 27.7275,23.67 27.3625,23.26 C26.9975,22.85 26.56,22.55 26.05,22.36 C25.54,22.17 24.885,21.98 24.085,21.79 C23.315,21.62 22.7425,21.4475 22.3675,21.2725 C21.9925,21.0975 21.805,20.83 21.805,20.47 C21.805,20.11 21.9675,19.82 22.2925,19.6 C22.6175,19.38 23.12,19.27 23.8,19.27 C24.77,19.27 25.74,19.545 26.71,20.095 L26.71,20.095 L27.46,18.25 C26.98,17.95 26.42,17.72 25.78,17.56 C25.14,17.4 24.485,17.32 23.815,17.32 C22.855,17.32 22.0425,17.465 21.3775,17.755 C20.7125,18.045 20.215,18.4375 19.885,18.9325 C19.555,19.4275 19.39,19.98 19.39,20.59 C19.39,21.29 19.5725,21.85 19.9375,22.27 C20.3025,22.69 20.74,22.995 21.25,23.185 C21.76,23.375 22.415,23.565 23.215,23.755 C23.735,23.875 24.1475,23.985 24.4525,24.085 C24.7575,24.185 25.0075,24.3175 25.2025,24.4825 C25.3975,24.6475 25.495,24.855 25.495,25.105 C25.495,25.445 25.33,25.7175 25,25.9225 C24.67,26.1275 24.16,26.23 23.47,26.23 C22.85,26.23 22.23,26.13 21.61,25.93 C20.99,25.73 20.455,25.465 20.005,25.135 L20.005,25.135 L19.18,26.965 C19.65,27.325 20.2725,27.6175 21.0475,27.8425 C21.8225,28.0675 22.625,28.18 23.455,28.18 Z M34.75,28 L39.295,17.5 L36.88,17.5 L33.64,25 L30.445,17.5 L27.82,17.5 L32.35,28 L34.75,28 Z" id="CSV" fill="#3624E0" fill-rule="nonzero"></path>
            </g>
        </g>
    </g>
</svg>