<?xml version="1.0" encoding="UTF-8"?>
<svg width="30px" height="30px" viewBox="0 0 30 30" version="1.1" xmlns="http://www.w3.org/2000/svg" xmlns:xlink="http://www.w3.org/1999/xlink">
    <title>icon/download</title>
    <g id="Symbols" stroke="none" stroke-width="1" fill="none" fill-rule="evenodd">
        <g id="icon/download">
            <g id="Group-5" transform="translate(15.000000, 15.000000) rotate(90.000000) translate(-15.000000, -15.000000) ">
                <circle id="Oval" fill="#F3F2FF" cx="15" cy="15" r="15"></circle>
                <g id="Group-30" transform="translate(7.000000, 8.000000)" fill="#3624E0">
                    <path d="M7.29289322,2.43933983 L10.8284271,5.97487373 C11.1804622,6.32690885 11.3209378,6.81039023 11.2498538,7.26732958 C11.321142,7.72444036 11.1807183,8.20836903 10.8284271,8.56066017 L10.8284271,8.56066017 L7.29289322,12.0961941 C6.70710678,12.6819805 5.75735931,12.6819805 5.17157288,12.0961941 C4.58578644,11.5104076 4.58578644,10.5606602 5.17157288,9.97487373 L5.17157288,9.97487373 L6.378,8.767 L1.5,8.76776695 C0.671572875,8.76776695 -1.13676692e-12,8.09619408 -1.13686838e-12,7.26776695 C-1.13696983e-12,6.43933983 0.671572875,5.76776695 1.5,5.76776695 L6.378,5.767 L5.17157288,4.56066017 C4.58578644,3.97487373 4.58578644,3.02512627 5.17157288,2.43933983 C5.75735931,1.85355339 6.70710678,1.85355339 7.29289322,2.43933983 Z" id="Combined-Shape"></path>
                    <path d="M9.5,5.76776695 L20.5,5.76776695 C21.3284271,5.76776695 22,6.43933983 22,7.26776695 C22,8.09619408 21.3284271,8.76776695 20.5,8.76776695 L9.5,8.76776695 C8.67157288,8.76776695 8,8.09619408 8,7.26776695 C8,6.43933983 8.67157288,5.76776695 9.5,5.76776695 Z" id="Rectangle-Copy-9" transform="translate(15.000000, 7.267767) rotate(90.000000) translate(-15.000000, -7.267767) "></path>
                </g>
            </g>
        </g>
    </g>
</svg>