<?xml version="1.0" encoding="UTF-8"?>
<svg width="62px" height="62px" viewBox="0 0 62 62" version="1.1" xmlns="http://www.w3.org/2000/svg" xmlns:xlink="http://www.w3.org/1999/xlink">
    <title>Partecipa</title>
    <g id="Symbols" stroke="none" stroke-width="1" fill="none" fill-rule="evenodd">
        <g id="Partecipa" fill-rule="nonzero">
            <g id="Group-14" transform="translate(2.000000, 1.000000)">
                <path d="M32.846921,5.09146447 C34.6941772,5.09146447 31.0598568,14.3245535 37.2040015,20.8344103 C43.3481462,27.344267 57.0687317,25.3488108 57.0687317,26.965787 C57.0687317,28.4894761 54.6947889,28.4814193 48.9754956,28.4754182 L47.8871707,28.4746911 C41.3791379,28.4746911 38.0398496,26.2895389 40.3435618,38.0830682 C42.6472741,49.8765976 49.8976749,53.646806 48.7594988,55.7065582 C48.1907432,56.7358327 44.6044438,53.5426063 41.801394,49.5117975 C38.9950672,45.4762764 36.9715386,40.6027447 35.6335373,40.9107245 C32.959097,41.5263246 38.3079776,58.2993745 37.2040015,58.2993745 C36.1000253,58.2993745 31.9786969,53.964638 30.5796887,40.9107245 C29.1806805,27.8568111 31.2194568,26.2530589 31.2194568,20.8344103 C30.5792327,11.3742332 30.9996648,5.09146447 32.846921,5.09146447 Z M40.7999976,10.7999994 C43.4509642,10.7999994 45.5999973,12.9490324 45.5999973,15.5999991 C45.5999973,18.2509657 43.4509642,20.3999988 40.7999976,20.3999988 C38.1490309,20.3999988 35.9999979,18.2509657 35.9999979,15.5999991 C35.9999979,12.9490324 38.1490309,10.7999994 40.7999976,10.7999994 Z" id="Combined-Shape" fill="#FF0000"></path>
                <path d="M2.84692275,0.291464752 C4.69417896,0.291464752 1.05985855,9.5245538 7.20400325,16.0344105 C13.3481479,22.5442673 27.0687335,20.5488111 27.0687335,22.1657872 C27.0687335,23.6894763 24.6947907,23.6814196 18.9754974,23.6754185 L17.8871725,23.6746914 C11.3791397,23.6746914 8.03985134,21.4895392 10.3435636,33.2830685 C12.6472759,45.0765978 19.8976767,48.8468063 18.7595006,50.9065585 C18.190745,51.935833 14.6044456,48.7426066 11.8013958,44.7117978 C8.99506897,40.6762767 6.97154042,35.802745 5.63353907,36.1107248 C2.95909877,36.7263249 8.30797938,53.4993748 7.20400325,53.4993748 C6.10002712,53.4993748 1.97869866,49.1646383 0.579690496,36.1107248 C-0.819317663,23.0568113 1.21945857,21.4530592 1.21945857,16.0344105 C0.579234496,6.57423347 0.999666544,0.291464752 2.84692275,0.291464752 Z M10.7999994,5.99999964 C13.450966,5.99999964 15.5999991,8.14903272 15.5999991,10.7999994 C15.5999991,13.450966 13.450966,15.5999991 10.7999994,15.5999991 C8.14903272,15.5999991 5.99999964,13.450966 5.99999964,10.7999994 C5.99999964,8.14903272 8.14903272,5.99999964 10.7999994,5.99999964 Z" id="Combined-Shape-Copy-4" fill="#3624E0" transform="translate(13.578999, 26.895420) scale(-1, 1) translate(-13.578999, -26.895420) "></path>
            </g>
        </g>
    </g>
</svg>