<?xml version="1.0" encoding="UTF-8"?>
<svg width="30px" height="30px" viewBox="0 0 30 30" version="1.1" xmlns="http://www.w3.org/2000/svg" xmlns:xlink="http://www.w3.org/1999/xlink">
    <title>icon/info</title>
    <g id="Symbols" stroke="none" stroke-width="1" fill="none" fill-rule="evenodd">
        <g id="icon/info">
            <g id="Group-5">
                <circle id="Oval" fill="#F3F2FF" cx="15" cy="15" r="15"></circle>
                <path d="M14.496,17.904 C14.784,17.904 15.028,17.82 15.228,17.652 C15.428,17.484 15.56,17.248 15.624,16.944 C15.704,16.48 15.896,16.06 16.2,15.684 C16.504,15.308 16.96,14.84 17.568,14.28 C18.112,13.752 18.544,13.308 18.864,12.948 C19.184,12.588 19.46,12.164 19.692,11.676 C19.924,11.188 20.04,10.648 20.04,10.056 C20.04,9.288 19.82,8.596 19.38,7.98 C18.94,7.364 18.324,6.88 17.532,6.528 C16.74,6.176 15.848,6 14.856,6 C13.928,6 13.004,6.156 12.084,6.468 C11.164,6.78 10.352,7.216 9.648,7.776 C9.424,7.952 9.26,8.14 9.156,8.34 C9.052,8.54 9,8.784 9,9.072 C9,9.488 9.116,9.844 9.348,10.14 C9.58,10.436 9.864,10.584 10.2,10.584 C10.504,10.584 10.888,10.456 11.352,10.2 C12.088,9.768 12.676,9.448 13.116,9.24 C13.556,9.032 14.032,8.928 14.544,8.928 C15.104,8.928 15.548,9.06 15.876,9.324 C16.204,9.588 16.368,9.944 16.368,10.392 C16.368,10.808 16.268,11.18 16.068,11.508 C15.868,11.836 15.552,12.248 15.12,12.744 C14.544,13.4 14.108,14 13.812,14.544 C13.516,15.088 13.368,15.768 13.368,16.584 C13.368,16.984 13.468,17.304 13.668,17.544 C13.868,17.784 14.144,17.904 14.496,17.904 Z M14.544,23.28 C15.12,23.28 15.6,23.084 15.984,22.692 C16.368,22.3 16.56,21.808 16.56,21.216 C16.56,20.624 16.368,20.132 15.984,19.74 C15.6,19.348 15.12,19.152 14.544,19.152 C13.952,19.152 13.464,19.348 13.08,19.74 C12.696,20.132 12.504,20.624 12.504,21.216 C12.504,21.808 12.696,22.3 13.08,22.692 C13.464,23.084 13.952,23.28 14.544,23.28 Z" id="?" fill="#3624E0" fill-rule="nonzero"></path>
            </g>
        </g>
    </g>
</svg>