<?xml version="1.0" encoding="UTF-8"?>
<svg width="46px" height="46px" viewBox="0 0 46 46" version="1.1" xmlns="http://www.w3.org/2000/svg" xmlns:xlink="http://www.w3.org/1999/xlink">
    <title>icon/Json</title>
    <g id="Symbols" stroke="none" stroke-width="1" fill="none" fill-rule="evenodd">
        <g id="icon/Json">
            <g id="Group-26">
                <circle id="Oval" fill="#F3F2FF" cx="23" cy="23" r="23"></circle>
                <path d="M6.1975,28.18 C7.4375,28.18 8.3775,27.8575 9.0175,27.2125 C9.6575,26.5675 9.9775,25.6 9.9775,24.31 L9.9775,24.31 L9.9775,17.5 L3.8725,17.5 L3.8725,19.45 L7.5625,19.45 L7.5625,24.445 C7.5625,25.605 7.0675,26.185 6.0775,26.185 C5.3475,26.185 4.6975,25.8 4.1275,25.03 L4.1275,25.03 L2.7775,26.65 C3.1575,27.14 3.645,27.5175 4.24,27.7825 C4.835,28.0475 5.4875,28.18 6.1975,28.18 Z M15.4525,28.18 C16.4125,28.18 17.2275,28.035 17.8975,27.745 C18.5675,27.455 19.07,27.0625 19.405,26.5675 C19.74,26.0725 19.9075,25.525 19.9075,24.925 C19.9075,24.225 19.725,23.67 19.36,23.26 C18.995,22.85 18.5575,22.55 18.0475,22.36 C17.5375,22.17 16.8825,21.98 16.0825,21.79 C15.3125,21.62 14.74,21.4475 14.365,21.2725 C13.99,21.0975 13.8025,20.83 13.8025,20.47 C13.8025,20.11 13.965,19.82 14.29,19.6 C14.615,19.38 15.1175,19.27 15.7975,19.27 C16.7675,19.27 17.7375,19.545 18.7075,20.095 L18.7075,20.095 L19.4575,18.25 C18.9775,17.95 18.4175,17.72 17.7775,17.56 C17.1375,17.4 16.4825,17.32 15.8125,17.32 C14.8525,17.32 14.04,17.465 13.375,17.755 C12.71,18.045 12.2125,18.4375 11.8825,18.9325 C11.5525,19.4275 11.3875,19.98 11.3875,20.59 C11.3875,21.29 11.57,21.85 11.935,22.27 C12.3,22.69 12.7375,22.995 13.2475,23.185 C13.7575,23.375 14.4125,23.565 15.2125,23.755 C15.7325,23.875 16.145,23.985 16.45,24.085 C16.755,24.185 17.005,24.3175 17.2,24.4825 C17.395,24.6475 17.4925,24.855 17.4925,25.105 C17.4925,25.445 17.3275,25.7175 16.9975,25.9225 C16.6675,26.1275 16.1575,26.23 15.4675,26.23 C14.8475,26.23 14.2275,26.13 13.6075,25.93 C12.9875,25.73 12.4525,25.465 12.0025,25.135 L12.0025,25.135 L11.1775,26.965 C11.6475,27.325 12.27,27.6175 13.045,27.8425 C13.82,28.0675 14.6225,28.18 15.4525,28.18 Z M26.2825,28.18 C27.3725,28.18 28.3525,27.945 29.2225,27.475 C30.0925,27.005 30.7775,26.3575 31.2775,25.5325 C31.7775,24.7075 32.0275,23.78 32.0275,22.75 C32.0275,21.72 31.7775,20.7925 31.2775,19.9675 C30.7775,19.1425 30.0925,18.495 29.2225,18.025 C28.3525,17.555 27.3725,17.32 26.2825,17.32 C25.1925,17.32 24.21,17.555 23.335,18.025 C22.46,18.495 21.775,19.1425 21.28,19.9675 C20.785,20.7925 20.5375,21.72 20.5375,22.75 C20.5375,23.78 20.785,24.7075 21.28,25.5325 C21.775,26.3575 22.46,27.005 23.335,27.475 C24.21,27.945 25.1925,28.18 26.2825,28.18 Z M26.2825,26.11 C25.6625,26.11 25.1025,25.9675 24.6025,25.6825 C24.1025,25.3975 23.71,25 23.425,24.49 C23.14,23.98 22.9975,23.4 22.9975,22.75 C22.9975,22.1 23.14,21.52 23.425,21.01 C23.71,20.5 24.1025,20.1025 24.6025,19.8175 C25.1025,19.5325 25.6625,19.39 26.2825,19.39 C26.9025,19.39 27.4625,19.5325 27.9625,19.8175 C28.4625,20.1025 28.855,20.5 29.14,21.01 C29.425,21.52 29.5675,22.1 29.5675,22.75 C29.5675,23.4 29.425,23.98 29.14,24.49 C28.855,25 28.4625,25.3975 27.9625,25.6825 C27.4625,25.9675 26.9025,26.11 26.2825,26.11 Z M35.8825,28 L35.8825,21.625 L41.1175,28 L43.1125,28 L43.1125,17.5 L40.7125,17.5 L40.7125,23.875 L35.4925,17.5 L33.4825,17.5 L33.4825,28 L35.8825,28 Z" id="JSON" fill="#3624E0" fill-rule="nonzero"></path>
            </g>
        </g>
    </g>
</svg>