<?xml version="1.0" encoding="UTF-8"?>
<svg width="30px" height="30px" viewBox="0 0 30 30" version="1.1" xmlns="http://www.w3.org/2000/svg" xmlns:xlink="http://www.w3.org/1999/xlink">
    <title>icon/prosegui</title>
    <g id="Symbols" stroke="none" stroke-width="1" fill="none" fill-rule="evenodd">
        <g id="icon/prosegui">
            <g id="Group-5">
                <circle id="Oval" fill="#F3F2FF" cx="15" cy="15" r="15"></circle>
                <path d="M19.2928932,10.4393398 L22.8284271,13.9748737 C23.1804622,14.3269089 23.3209378,14.8103902 23.2498538,15.2673296 C23.321142,15.7244404 23.1807183,16.208369 22.8284271,16.5606602 L22.8284271,16.5606602 L19.2928932,20.0961941 C18.7071068,20.6819805 17.7573593,20.6819805 17.1715729,20.0961941 C16.5857864,19.5104076 16.5857864,18.5606602 17.1715729,17.9748737 L17.1715729,17.9748737 L18.378,16.767 L8.5,16.767767 C7.67157288,16.767767 7,16.0961941 7,15.267767 C7,14.4393398 7.67157288,13.767767 8.5,13.767767 L18.378,13.767 L17.1715729,12.5606602 C16.5857864,11.9748737 16.5857864,11.0251263 17.1715729,10.4393398 C17.7573593,9.85355339 18.7071068,9.85355339 19.2928932,10.4393398 Z" id="Combined-Shape" fill="#3624E0"></path>
            </g>
        </g>
    </g>
</svg>