<?xml version="1.0" encoding="UTF-8"?>
<svg width="30px" height="30px" viewBox="0 0 30 30" version="1.1" xmlns="http://www.w3.org/2000/svg" xmlns:xlink="http://www.w3.org/1999/xlink">
    <title>icon/fuori</title>
    <g id="Symbols" stroke="none" stroke-width="1" fill="none" fill-rule="evenodd">
        <g id="icon/fuori">
            <g id="Group-5">
                <circle id="Oval" fill="#F3F2FF" cx="15" cy="15" r="15"></circle>
                <path d="M20,16 L20,16 L20,21 C20,22.1045695 19.1045695,23 18,23 L9,23 C7.8954305,23 7,22.1045695 7,21 L7,12 C7,10.8954305 7.8954305,10 9,10 L14,10 L14,10" id="Path" stroke="#3624E0" stroke-width="3" stroke-linecap="round" stroke-linejoin="round"></path>
                <path d="M22.2928932,6.43933983 L25.8284271,9.97487373 C26.1804622,10.3269089 26.3209378,10.8103902 26.2498538,11.2673296 C26.321142,11.7244404 26.1807183,12.208369 25.8284271,12.5606602 L25.8284271,12.5606602 L22.2928932,16.0961941 C21.7071068,16.6819805 20.7573593,16.6819805 20.1715729,16.0961941 C19.5857864,15.5104076 19.5857864,14.5606602 20.1715729,13.9748737 L20.1715729,13.9748737 L21.378,12.767 L11.5,12.767767 C10.6715729,12.767767 10,12.0961941 10,11.267767 C10,10.4393398 10.6715729,9.76776695 11.5,9.76776695 L21.378,9.767 L20.1715729,8.56066017 C19.5857864,7.97487373 19.5857864,7.02512627 20.1715729,6.43933983 C20.7573593,5.85355339 21.7071068,5.85355339 22.2928932,6.43933983 Z" id="Combined-Shape" fill="#3624E0" transform="translate(18.133928, 11.267767) rotate(-45.000000) translate(-18.133928, -11.267767) "></path>
            </g>
        </g>
    </g>
</svg>