<?xml version="1.0" encoding="UTF-8"?>
<svg width="62px" height="62px" viewBox="0 0 62 62" version="1.1" xmlns="http://www.w3.org/2000/svg" xmlns:xlink="http://www.w3.org/1999/xlink">
    <title>appalti monitorati</title>
    <g id="Symbols" stroke="none" stroke-width="1" fill="none" fill-rule="evenodd">
        <g id="appalti-monitorati">
            <g id="Group-9" transform="translate(7.000000, 5.000000)">
                <g id="Group" transform="translate(0.000000, 24.000000)" stroke="#000000" stroke-width="4">
                    <circle id="Oval" cx="12.2500004" cy="5.28260935" r="5.10000014"></circle>
                    <path d="M0.250000358,28.23261 L0.250000358,23.1326098 C0.250000358,20.3159575 2.5333482,18.0326097 5.3500005,18.0326097 L19.1500002,18.0326097 C21.9666525,18.0326097 24.2500004,20.3159575 24.2500004,23.1326098 L24.2500004,28.23261 L24.2500004,28.23261" id="Path-22" stroke-linecap="round"></path>
                    <path d="M29.5,1.5 C30.5,3.5 31,6 31,9 C31,12 30,14.5 28,16.5" id="Path-2" stroke-linecap="round"></path>
                </g>
                <g id="icon/redflag" transform="translate(15.000000, 0.000000)" stroke="#FF0000" stroke-linecap="round" stroke-linejoin="round">
                    <g id="Group-18" transform="translate(17.500000, 17.000000) rotate(-10.000000) translate(-17.500000, -17.000000) translate(4.000000, 5.000000)">
                        <path d="M14.1280112,11.7743486 L3.29051048,11.7743486 L3.29051048,0.873097885 C3.29051048,0.556387864 3.5761105,0.299347846 3.92801053,0.299347846 L14.1280112,0.299347846 C14.4799112,0.299347846 14.7655113,0.556387864 14.7655113,0.873097885 L14.7655113,11.2005986 C14.7655113,11.5173086 14.4799112,11.7743486 14.1280112,11.7743486 L14.1280112,11.7743486 Z" id="Stroke-64" stroke-width="3.60000014" fill="#FF0000"></path>
                        <path d="M25.603012,14.0693488 L15.4030113,14.0693488 C15.0511113,14.0693488 14.7655113,13.8123088 14.7655113,13.4955987 L14.7655113,2.594348 L25.603012,2.594348 C25.954912,2.594348 26.240512,2.85138802 26.240512,3.16809804 L26.240512,13.4955987 C26.240512,13.8123088 25.954912,14.0693488 25.603012,14.0693488 L25.603012,14.0693488 Z" id="Stroke-66" stroke-width="3.60000014" fill="#FF0000"></path>
                        <line x1="3.29051048" y1="9.47934847" x2="3.29051048" y2="23.2493494" id="Stroke-68" stroke-width="3.60000014"></line>
                    </g>
                </g>
            </g>
        </g>
    </g>
</svg>