<?xml version="1.0" encoding="UTF-8"?>
<svg width="62px" height="62px" viewBox="0 0 62 62" version="1.1" xmlns="http://www.w3.org/2000/svg" xmlns:xlink="http://www.w3.org/1999/xlink">
    <title>PA</title>
    <g id="Symbols" stroke="none" stroke-width="1" fill="none" fill-rule="evenodd">
        <g id="PA">
            <g id="Group-+-Group-Copy" transform="translate(-2.000000, 8.000000)">
                <g id="Group-12">
                    <g id="Group" transform="translate(43.534728, 23.596961) rotate(-10.000000) translate(-43.534728, -23.596961) translate(24.034728, 3.596961)">
                        <path d="M0.0842611426,38.0325869 C0.0842611426,38.0325869 21.6048399,34.5262213 28.5880191,24.4992555 C34.1432644,16.5224881 32.4901342,8.45624225 32.4901342,8.45624225" id="Stroke-1" stroke="#3624E0" stroke-width="2.39999986" stroke-linecap="round" stroke-linejoin="round"></path>
                        <path d="M10.7205382,35.903463 C10.7205382,35.903463 13.1685825,34.3298965 15.5785794,34.6618679 C17.9889071,34.9936194 20.5589235,37.1804537 20.5589235,37.1804537 C20.5589235,37.1804537 18.8861631,39.7144288 15.881304,39.5345927 C12.8765552,39.3548664 10.7205382,35.903463 10.7205382,35.903463" id="Fill-2" fill="#3624E0"></path>
                        <path d="M17.1371078,32.4965581 C17.1371078,32.4965581 19.6971988,31.1114019 22.0754344,31.6236492 C24.45367,32.1358965 26.8509845,34.5094921 26.8509845,34.5094921 C26.8509845,34.5094921 24.9911855,36.9105688 22.0087137,36.5053878 C19.025911,36.1000969 17.1371078,32.4965581 17.1371078,32.4965581" id="Fill-3" fill="#3624E0"></path>
                        <path d="M23.3256517,29.5368017 C23.3256517,29.5368017 25.629116,27.7593256 28.059074,27.8839798 C30.4889217,28.0081943 33.2378158,29.9669356 33.2378158,29.9669356 C33.2378158,29.9669356 31.7894797,32.6347986 28.7803196,32.7127349 C25.7709389,32.7906712 23.3256517,29.5368017 23.3256517,29.5368017" id="Fill-4" fill="#3624E0"></path>
                        <path d="M28.0696079,25.2017158 C28.0696079,25.2017158 29.4787706,22.7263302 31.6227758,21.9851106 C33.7668831,21.2436711 36.7901479,22.105038 36.7901479,22.105038 C36.7901479,22.105038 36.4137452,25.111358 33.834856,26.2464364 C31.2559669,27.3816247 28.0696079,25.2017158 28.0696079,25.2017158" id="Fill-5" fill="#3624E0"></path>
                        <path d="M31.3546686,19.9807623 C31.3546686,19.9807623 31.9412746,17.3982689 33.7235187,16.0811101 C35.5056623,14.7636505 38.5800887,14.5526445 38.5800887,14.5526445 C38.5800887,14.5526445 39.1134948,17.2671545 37.0412161,19.0617583 C34.969038,20.8567632 31.3546686,19.9807623 31.3546686,19.9807623" id="Fill-6" fill="#3624E0"></path>
                        <path d="M33.0880366,14.3396812 C33.0880366,14.3396812 33.1455545,11.8778875 34.5271061,10.3500801 C35.9081901,8.82217953 38.6714804,8.06550052 38.6714804,8.06550052 C38.6714804,8.06550052 39.6590111,10.4420897 38.1016324,12.4584711 C36.5443473,14.4748524 33.0880366,14.3396812 33.0880366,14.3396812" id="Fill-7" fill="#3624E0"></path>
                        <path d="M30.8448585,9.66031466 C30.8448585,9.66031466 29.4672852,7.33572969 29.8650526,5.11570657 C30.2624098,2.89588788 32.3949103,0.595424697 32.3949103,0.595424697 C32.3949103,0.595424697 34.6955827,2.23744456 34.4180992,5.01359777 C34.1405132,7.79005762 30.8448585,9.66031466 30.8448585,9.66031466" id="Fill-8" fill="#3624E0" transform="translate(32.117134, 5.127870) rotate(-26.000000) translate(-32.117134, -5.127870) "></path>
                        <path d="M10.9063637,35.2039047 C10.9063637,35.2039047 13.7158027,34.4363032 15.0759131,32.4254578 C16.4358029,30.4145025 16.5166398,27.0471911 16.5166398,27.0471911 C16.5166398,27.0471911 13.5065974,26.59859 11.636101,28.9495412 C9.76571491,31.3007123 10.9063637,35.2039047 10.9063637,35.2039047" id="Fill-9" fill="#3624E0"></path>
                        <path d="M20.029665,31.1009817 C20.029665,31.1009817 22.4021348,29.7978635 23.193505,27.6847817 C23.9843625,25.5717 23.322836,22.509316 23.322836,22.509316 C23.322836,22.509316 20.5031949,22.7562 19.3248573,25.2875022 C18.1465197,27.8188045 20.029665,31.1009817 20.029665,31.1009817" id="Fill-10" fill="#3624E0"></path>
                        <path d="M27.9511918,23.2548055 C28.5210862,21.4388902 27.8238179,18.8890704 27.8238179,18.8890704 C27.8238179,18.8890704 25.4597859,19.2246706 24.5824463,21.4106863 C23.7052796,23.5967883 25.4414413,26.2764148 25.4414413,26.2764148 C25.4414413,26.2764148 27.3808648,25.0709796 27.9511918,23.2548055 Z" id="Fill-11" fill="#3624E0" transform="translate(26.255070, 22.582743) rotate(-11.000000) translate(-26.255070, -22.582743) "></path>
                        <path d="M30.5536267,21.0889887 C30.5536267,21.0889887 31.6949827,18.6333651 31.0767139,16.4585687 C30.4578284,14.2838746 28.1011092,12.2013894 28.1011092,12.2013894 C28.1011092,12.2013894 25.9703176,14.0679011 26.5248579,16.8094745 C27.079501,19.550843 30.5536267,21.0889887 30.5536267,21.0889887" id="Fill-12" fill="#3624E0" transform="translate(28.846541, 16.645189) rotate(4.000000) translate(-28.846541, -16.645189) "></path>
                        <path d="M31.8290465,13.779798 C31.8290465,13.779798 32.6435185,11.3838638 31.8507606,9.42434622 C31.0576184,7.46482867 28.6583032,5.76417315 28.6583032,5.76417315 C28.6583032,5.76417315 26.8651581,7.71104927 27.655514,10.2038054 C28.445966,12.6962741 31.8290465,13.779798 31.8290465,13.779798" id="Fill-13" fill="#3624E0" transform="translate(29.825933, 9.771986) rotate(-9.000000) translate(-29.825933, -9.771986) "></path>
                    </g>
                    <g id="Group-Copy" transform="translate(23.065268, 23.596961) scale(-1, 1) rotate(-10.000000) translate(-23.065268, -23.596961) translate(3.565268, 3.596961)">
                        <path d="M0.0842611426,38.0325869 C0.0842611426,38.0325869 21.6048399,34.5262213 28.5880191,24.4992555 C34.1432644,16.5224881 32.4901342,8.45624225 32.4901342,8.45624225" id="Stroke-1" stroke="#3624E0" stroke-width="2.39999986" stroke-linecap="round" stroke-linejoin="round"></path>
                        <path d="M10.7205382,35.903463 C10.7205382,35.903463 13.1685825,34.3298965 15.5785794,34.6618679 C17.9889071,34.9936194 20.5589235,37.1804537 20.5589235,37.1804537 C20.5589235,37.1804537 18.8861631,39.7144288 15.881304,39.5345927 C12.8765552,39.3548664 10.7205382,35.903463 10.7205382,35.903463" id="Fill-2" fill="#3624E0"></path>
                        <path d="M17.1371078,32.4965581 C17.1371078,32.4965581 19.6971988,31.1114019 22.0754344,31.6236492 C24.45367,32.1358965 26.8509845,34.5094921 26.8509845,34.5094921 C26.8509845,34.5094921 24.9911855,36.9105688 22.0087137,36.5053878 C19.025911,36.1000969 17.1371078,32.4965581 17.1371078,32.4965581" id="Fill-3" fill="#3624E0"></path>
                        <path d="M23.3256517,29.5368017 C23.3256517,29.5368017 25.629116,27.7593256 28.059074,27.8839798 C30.4889217,28.0081943 33.2378158,29.9669356 33.2378158,29.9669356 C33.2378158,29.9669356 31.7894797,32.6347986 28.7803196,32.7127349 C25.7709389,32.7906712 23.3256517,29.5368017 23.3256517,29.5368017" id="Fill-4" fill="#3624E0"></path>
                        <path d="M28.0696079,25.2017158 C28.0696079,25.2017158 29.4787706,22.7263302 31.6227758,21.9851106 C33.7668831,21.2436711 36.7901479,22.105038 36.7901479,22.105038 C36.7901479,22.105038 36.4137452,25.111358 33.834856,26.2464364 C31.2559669,27.3816247 28.0696079,25.2017158 28.0696079,25.2017158" id="Fill-5" fill="#3624E0"></path>
                        <path d="M31.3546686,19.9807623 C31.3546686,19.9807623 31.9412746,17.3982689 33.7235187,16.0811101 C35.5056623,14.7636505 38.5800887,14.5526445 38.5800887,14.5526445 C38.5800887,14.5526445 39.1134948,17.2671545 37.0412161,19.0617583 C34.969038,20.8567632 31.3546686,19.9807623 31.3546686,19.9807623" id="Fill-6" fill="#3624E0"></path>
                        <path d="M33.0880366,14.3396812 C33.0880366,14.3396812 33.1455545,11.8778875 34.5271061,10.3500801 C35.9081901,8.82217953 38.6714804,8.06550052 38.6714804,8.06550052 C38.6714804,8.06550052 39.6590111,10.4420897 38.1016324,12.4584711 C36.5443473,14.4748524 33.0880366,14.3396812 33.0880366,14.3396812" id="Fill-7" fill="#3624E0"></path>
                        <path d="M30.8448585,9.66031466 C30.8448585,9.66031466 29.4672852,7.33572969 29.8650526,5.11570657 C30.2624098,2.89588788 32.3949103,0.595424697 32.3949103,0.595424697 C32.3949103,0.595424697 34.6955827,2.23744456 34.4180992,5.01359777 C34.1405132,7.79005762 30.8448585,9.66031466 30.8448585,9.66031466" id="Fill-8" fill="#3624E0" transform="translate(32.117134, 5.127870) rotate(-26.000000) translate(-32.117134, -5.127870) "></path>
                        <path d="M10.9063637,35.2039047 C10.9063637,35.2039047 13.7158027,34.4363032 15.0759131,32.4254578 C16.4358029,30.4145025 16.5166398,27.0471911 16.5166398,27.0471911 C16.5166398,27.0471911 13.5065974,26.59859 11.636101,28.9495412 C9.76571491,31.3007123 10.9063637,35.2039047 10.9063637,35.2039047" id="Fill-9" fill="#3624E0"></path>
                        <path d="M20.029665,31.1009817 C20.029665,31.1009817 22.4021348,29.7978635 23.193505,27.6847817 C23.9843625,25.5717 23.322836,22.509316 23.322836,22.509316 C23.322836,22.509316 20.5031949,22.7562 19.3248573,25.2875022 C18.1465197,27.8188045 20.029665,31.1009817 20.029665,31.1009817" id="Fill-10" fill="#3624E0"></path>
                        <path d="M27.9511918,23.2548055 C28.5210862,21.4388902 27.8238179,18.8890704 27.8238179,18.8890704 C27.8238179,18.8890704 25.4597859,19.2246706 24.5824463,21.4106863 C23.7052796,23.5967883 25.4414413,26.2764148 25.4414413,26.2764148 C25.4414413,26.2764148 27.3808648,25.0709796 27.9511918,23.2548055 Z" id="Fill-11" fill="#3624E0" transform="translate(26.255070, 22.582743) rotate(-11.000000) translate(-26.255070, -22.582743) "></path>
                        <path d="M30.5536267,21.0889887 C30.5536267,21.0889887 31.6949827,18.6333651 31.0767139,16.4585687 C30.4578284,14.2838746 28.1011092,12.2013894 28.1011092,12.2013894 C28.1011092,12.2013894 25.9703176,14.0679011 26.5248579,16.8094745 C27.079501,19.550843 30.5536267,21.0889887 30.5536267,21.0889887" id="Fill-12" fill="#3624E0" transform="translate(28.846541, 16.645189) rotate(4.000000) translate(-28.846541, -16.645189) "></path>
                        <path d="M31.8290465,13.779798 C31.8290465,13.779798 32.6435185,11.3838638 31.8507606,9.42434622 C31.0576184,7.46482867 28.6583032,5.76417315 28.6583032,5.76417315 C28.6583032,5.76417315 26.8651581,7.71104927 27.655514,10.2038054 C28.445966,12.6962741 31.8290465,13.779798 31.8290465,13.779798" id="Fill-13" fill="#3624E0" transform="translate(29.825933, 9.771986) rotate(-9.000000) translate(-29.825933, -9.771986) "></path>
                    </g>
                </g>
                <path d="M20.3328256,3.21584418 C21.2697976,2.53171642 27.5347133,0.521550481 33.7885164,0.513697387 C40.1871148,0.505710768 46.5740801,2.51587671 47.2308555,3.21584418 C47.2308555,19.2120349 42.9188333,25.8278848 33.7818405,30.289791 C24.9127195,26.0057757 20.3328256,19.0467418 20.3328256,3.21584418 Z" id="Path-5" stroke="#3624E0" stroke-width="2.99999982" fill-rule="nonzero"></path>
            </g>
        </g>
    </g>
</svg>