<?xml version="1.0" encoding="UTF-8"?>
<svg width="513px" height="120px" viewBox="0 0 513 120" version="1.1" xmlns="http://www.w3.org/2000/svg" xmlns:xlink="http://www.w3.org/1999/xlink">
    <title>logo/logoDark</title>
    <g id="Symbols" stroke="none" stroke-width="1" fill="none" fill-rule="evenodd">
        <g id="logo/logoDark">
            <path d="M11.932,105 L16.644,93.6 L41.344,93.6 L46.056,105 L58.976,105 L35.188,51.8 L23.028,51.8 L-0.684,105 L11.932,105 Z M37.468,84.252 L20.596,84.252 L29.032,63.884 L37.468,84.252 Z M74.544,119.744 L74.544,100.668 C77.5333333,103.961333 81.6373333,105.608 86.856,105.608 C90.656,105.608 94.114,104.734 97.23,102.986 C100.346,101.238 102.790667,98.7806667 104.564,95.614 C106.337333,92.4473333 107.224,88.7613333 107.224,84.556 C107.224,80.3506667 106.337333,76.6646667 104.564,73.498 C102.790667,70.3313333 100.346,67.874 97.23,66.126 C94.114,64.378 90.656,63.504 86.856,63.504 C81.232,63.504 76.9506667,65.2773333 74.012,68.824 L74.012,68.824 L74.012,64.112 L62.688,64.112 L62.688,119.744 L74.544,119.744 Z M84.804,95.88 C81.764,95.88 79.2686667,94.854 77.318,92.802 C75.3673333,90.75 74.392,88.0013333 74.392,84.556 C74.392,81.1106667 75.3673333,78.362 77.318,76.31 C79.2686667,74.258 81.764,73.232 84.804,73.232 C87.844,73.232 90.3393333,74.258 92.29,76.31 C94.2406667,78.362 95.216,81.1106667 95.216,84.556 C95.216,88.0013333 94.2406667,90.75 92.29,92.802 C90.3393333,94.854 87.844,95.88 84.804,95.88 Z M125.984,119.744 L125.984,100.668 C128.973333,103.961333 133.077333,105.608 138.296,105.608 C142.096,105.608 145.554,104.734 148.67,102.986 C151.786,101.238 154.230667,98.7806667 156.004,95.614 C157.777333,92.4473333 158.664,88.7613333 158.664,84.556 C158.664,80.3506667 157.777333,76.6646667 156.004,73.498 C154.230667,70.3313333 151.786,67.874 148.67,66.126 C145.554,64.378 142.096,63.504 138.296,63.504 C132.672,63.504 128.390667,65.2773333 125.452,68.824 L125.452,68.824 L125.452,64.112 L114.128,64.112 L114.128,119.744 L125.984,119.744 Z M136.244,95.88 C133.204,95.88 130.708667,94.854 128.758,92.802 C126.807333,90.75 125.832,88.0013333 125.832,84.556 C125.832,81.1106667 126.807333,78.362 128.758,76.31 C130.708667,74.258 133.204,73.232 136.244,73.232 C139.284,73.232 141.779333,74.258 143.73,76.31 C145.680667,78.362 146.656,81.1106667 146.656,84.556 C146.656,88.0013333 145.680667,90.75 143.73,92.802 C141.779333,94.854 139.284,95.88 136.244,95.88 Z M177.5,105.608 C183.58,105.608 187.734667,103.708 189.964,99.908 L189.964,99.908 L189.964,105 L201.06,105 L201.06,81.668 C201.06,75.588 199.362667,71.0406667 195.968,68.026 C192.573333,65.0113333 187.709333,63.504 181.376,63.504 C178.082667,63.504 174.878,63.9346667 171.762,64.796 C168.646,65.6573333 165.973333,66.8733333 163.744,68.444 L163.744,68.444 L168,76.728 C169.469333,75.5626667 171.255333,74.638 173.358,73.954 C175.460667,73.27 177.601333,72.928 179.78,72.928 C182.921333,72.928 185.277333,73.6246667 186.848,75.018 C188.418667,76.4113333 189.204,78.4 189.204,80.984 L189.204,80.984 L179.78,80.984 C173.801333,80.984 169.380667,82.0733333 166.518,84.252 C163.655333,86.4306667 162.224,89.42 162.224,93.22 C162.224,95.6013333 162.832,97.7293333 164.048,99.604 C165.264,101.478667 167.024667,102.948 169.33,104.012 C171.635333,105.076 174.358667,105.608 177.5,105.608 Z M180.464,97.628 C178.386667,97.628 176.752667,97.1846667 175.562,96.298 C174.371333,95.4113333 173.776,94.208 173.776,92.688 C173.776,89.496 176.208,87.9 181.072,87.9 L181.072,87.9 L189.204,87.9 L189.204,92.08 C188.545333,93.904 187.430667,95.2846667 185.86,96.222 C184.289333,97.1593333 182.490667,97.628 180.464,97.628 Z M222.632,105 L222.632,48.608 L210.776,48.608 L210.776,105 L222.632,105 Z M252.336,105.608 C254.210667,105.608 255.996667,105.392667 257.694,104.962 C259.391333,104.531333 260.822667,103.885333 261.988,103.024 L261.988,103.024 L258.796,94.664 C257.478667,95.6773333 255.882667,96.184 254.008,96.184 C252.386667,96.184 251.132667,95.7153333 250.246,94.778 C249.359333,93.8406667 248.916,92.5106667 248.916,90.788 L248.916,90.788 L248.916,74.144 L259.1,74.144 L259.1,65.024 L248.916,65.024 L248.916,55.068 L237.06,55.068 L237.06,65.024 L230.752,65.024 L230.752,74.144 L237.06,74.144 L237.06,90.94 C237.06,95.7533333 238.39,99.4013333 241.05,101.884 C243.71,104.366667 247.472,105.608 252.336,105.608 Z M273.604,58.412 C275.782667,58.412 277.556,57.766 278.924,56.474 C280.292,55.182 280.976,53.548 280.976,51.572 C280.976,49.748 280.292,48.228 278.924,47.012 C277.556,45.796 275.782667,45.188 273.604,45.188 C271.425333,45.188 269.652,45.8213333 268.284,47.088 C266.916,48.3546667 266.232,49.9253333 266.232,51.8 C266.232,53.6746667 266.916,55.2453333 268.284,56.512 C269.652,57.7786667 271.425333,58.412 273.604,58.412 Z M279.532,105 L279.532,64.112 L267.676,64.112 L267.676,105 L279.532,105 Z M302.7,105 L302.7,90.332 L313.416,90.332 C318.128,90.332 322.219333,89.5593333 325.69,88.014 C329.160667,86.4686667 331.833333,84.2393333 333.708,81.326 C335.582667,78.4126667 336.52,75.0053333 336.52,71.104 C336.52,67.152 335.582667,63.732 333.708,60.844 C331.833333,57.956 329.160667,55.7266667 325.69,54.156 C322.219333,52.5853333 318.128,51.8 313.416,51.8 L313.416,51.8 L290.388,51.8 L290.388,105 L302.7,105 Z M312.732,80.3 L302.7,80.3 L302.7,61.832 L312.732,61.832 C316.430667,61.832 319.242667,62.63 321.168,64.226 C323.093333,65.822 324.056,68.1146667 324.056,71.104 C324.056,74.0426667 323.093333,76.31 321.168,77.906 C319.242667,79.502 316.430667,80.3 312.732,80.3 L312.732,80.3 Z M370.784,105.912 C376.306667,105.912 381.272,104.721333 385.68,102.34 C390.088,99.9586667 393.558667,96.678 396.092,92.498 C398.625333,88.318 399.892,83.6186667 399.892,78.4 C399.892,73.1813333 398.625333,68.482 396.092,64.302 C393.558667,60.122 390.088,56.8413333 385.68,54.46 C381.272,52.0786667 376.306667,50.888 370.784,50.888 C365.261333,50.888 360.283333,52.0786667 355.85,54.46 C351.416667,56.8413333 347.946,60.122 345.438,64.302 C342.93,68.482 341.676,73.1813333 341.676,78.4 C341.676,83.6186667 342.93,88.318 345.438,92.498 C347.946,96.678 351.416667,99.9586667 355.85,102.34 C360.283333,104.721333 365.261333,105.912 370.784,105.912 Z M370.784,95.424 C367.642667,95.424 364.805333,94.702 362.272,93.258 C359.738667,91.814 357.75,89.8 356.306,87.216 C354.862,84.632 354.14,81.6933333 354.14,78.4 C354.14,75.1066667 354.862,72.168 356.306,69.584 C357.75,67 359.738667,64.986 362.272,63.542 C364.805333,62.098 367.642667,61.376 370.784,61.376 C373.925333,61.376 376.762667,62.098 379.296,63.542 C381.829333,64.986 383.818,67 385.262,69.584 C386.706,72.168 387.428,75.1066667 387.428,78.4 C387.428,81.6933333 386.706,84.632 385.262,87.216 C383.818,89.8 381.829333,91.814 379.296,93.258 C376.762667,94.702 373.925333,95.424 370.784,95.424 Z M420.476,105 L420.476,90.332 L431.192,90.332 C435.904,90.332 439.995333,89.5593333 443.466,88.014 C446.936667,86.4686667 449.609333,84.2393333 451.484,81.326 C453.358667,78.4126667 454.296,75.0053333 454.296,71.104 C454.296,67.152 453.358667,63.732 451.484,60.844 C449.609333,57.956 446.936667,55.7266667 443.466,54.156 C439.995333,52.5853333 435.904,51.8 431.192,51.8 L431.192,51.8 L408.164,51.8 L408.164,105 L420.476,105 Z M430.508,80.3 L420.476,80.3 L420.476,61.832 L430.508,61.832 C434.206667,61.832 437.018667,62.63 438.944,64.226 C440.869333,65.822 441.832,68.1146667 441.832,71.104 C441.832,74.0426667 440.869333,76.31 438.944,77.906 C437.018667,79.502 434.206667,80.3 430.508,80.3 L430.508,80.3 Z" id="AppaltiPOP" fill="#FFFFFF" fill-rule="nonzero"></path>
            <path d="M460,71 C471,71 482,58 475,46" id="Path-3" stroke="#FFFFFF" stroke-width="6" stroke-linecap="round" stroke-linejoin="round"></path>
            <g id="Group-18" transform="translate(481.500000, 27.500000) rotate(-10.000000) translate(-481.500000, -27.500000) translate(455.000000, 4.000000)" stroke="#FF0000" stroke-linecap="round" stroke-linejoin="round" stroke-width="7.20000029">
                <path d="M28.2560224,23.5486972 L6.58102096,23.5486972 L6.58102096,1.74619577 C6.58102096,1.11277573 7.152221,0.598695693 7.85602105,0.598695693 L28.2560224,0.598695693 C28.9598225,0.598695693 29.5310225,1.11277573 29.5310225,1.74619577 L29.5310225,22.4011972 C29.5310225,23.0346172 28.9598225,23.5486972 28.2560224,23.5486972 L28.2560224,23.5486972 Z" id="Stroke-64" fill="#FF0000"></path>
                <path d="M51.206024,28.1386976 L30.8060226,28.1386976 C30.1022226,28.1386976 29.5310225,27.6246175 29.5310225,26.9911975 L29.5310225,5.188696 L51.206024,5.188696 C51.909824,5.188696 52.4810241,5.70277604 52.4810241,6.33619608 L52.4810241,26.9911975 C52.4810241,27.6246175 51.909824,28.1386976 51.206024,28.1386976 L51.206024,28.1386976 Z" id="Stroke-66" fill="#FF0000"></path>
                <line x1="6.58102096" y1="18.9586969" x2="6.58102096" y2="46.4986988" id="Stroke-68"></line>
            </g>
        </g>
    </g>
</svg>